<?xml version="1.0" encoding="UTF-8" standalone="no"?>
<!-- Created with Inkscape (http://www.inkscape.org/) -->

<svg
   xmlns:dc="http://purl.org/dc/elements/1.1/"
   xmlns:cc="http://creativecommons.org/ns#"
   xmlns:rdf="http://www.w3.org/1999/02/22-rdf-syntax-ns#"
   xmlns:svg="http://www.w3.org/2000/svg"
   xmlns="http://www.w3.org/2000/svg"
   xmlns:sodipodi="http://sodipodi.sourceforge.net/DTD/sodipodi-0.dtd"
   xmlns:inkscape="http://www.inkscape.org/namespaces/inkscape"
   width="50"
   height="50"
   viewBox="0 0 50 50"
   version="1.1"
   id="svg8"
   inkscape:version="0.92.4 (5da689c313, 2019-01-14)">
  <defs
     id="defs2">
    <clipPath
       clipPathUnits="userSpaceOnUse"
       id="clipPath18">
      <path
         d="M 0,583.94 H 810.71 V 0 H 0 Z"
         id="path16"
         inkscape:connector-curvature="0" />
    </clipPath>
  </defs>
  <sodipodi:namedview
     id="base"
     pagecolor="#ffffff"
     bordercolor="#666666"
     borderopacity="1.0"
     inkscape:pageopacity="0.0"
     inkscape:pageshadow="2"
     inkscape:zoom="0.35"
     inkscape:cx="51.076569"
     inkscape:cy="42.510495"
     inkscape:document-units="mm"
     inkscape:current-layer="layer1"
     showgrid="false"
     inkscape:window-width="1920"
     inkscape:window-height="1017"
     inkscape:window-x="-8"
     inkscape:window-y="-8"
     inkscape:window-maximized="1"
     fit-margin-top="0"
     fit-margin-left="0"
     fit-margin-right="0"
     fit-margin-bottom="0" />
  <metadata
     id="metadata5">
    <rdf:RDF>
      <cc:Work
         rdf:about="">
        <dc:format>image/svg+xml</dc:format>
        <dc:type
           rdf:resource="http://purl.org/dc/dcmitype/StillImage" />
        <dc:title></dc:title>
      </cc:Work>
    </rdf:RDF>
  </metadata>
  <g
     inkscape:label="Layer 1"
     inkscape:groupmode="layer"
     id="layer1"
     transform="translate(-92.319324,-118.51435)">
    <g
       id="g10"
       transform="matrix(0.35277777,0,0,-0.35277777,-34.899007,247.29815)">
      <g
         id="g12">
        <g
           id="g14"
           clip-path="url(#clipPath18)">
          <g
             id="g20"
             transform="translate(450.0909,298.08)">
            <path
               d="m 0,0 v 12.218 c 0,14.56 -11.846,26.412 -26.406,26.412 -7.11,0 -13.575,-2.829 -18.33,-7.413 -4.754,4.584 -11.22,7.413 -18.329,7.413 -14.561,0 -26.407,-11.852 -26.407,-26.412 v -36.655 c 0,-14.567 11.846,-26.413 26.407,-26.413 h 36.659 C -11.846,-50.85 0,-39.004 0,-24.437 v 17.756 h -52.817 v -16.166 h 36.653 v -1.59 c 0,-5.652 -4.597,-10.248 -10.242,-10.248 h -36.659 c -5.646,0 -10.243,4.596 -10.243,10.248 v 36.655 c 0,5.651 4.597,10.248 10.243,10.248 5.651,0 10.248,-4.597 10.248,-10.248 V 0 h 16.163 v 12.218 c 0,5.651 4.597,10.248 10.248,10.248 5.645,0 10.242,-4.597 10.242,-10.248 V 0 Z"
               style="fill:#ffffff;fill-opacity:1;fill-rule:nonzero;stroke:none"
               id="path22"
               inkscape:connector-curvature="0" />
          </g>
        </g>
      </g>
    </g>
  </g>
</svg>
