<?xml version="1.0" encoding="UTF-8" standalone="no"?>
<svg
   xmlns:dc="http://purl.org/dc/elements/1.1/"
   xmlns:cc="http://creativecommons.org/ns#"
   xmlns:rdf="http://www.w3.org/1999/02/22-rdf-syntax-ns#"
   xmlns:svg="http://www.w3.org/2000/svg"
   xmlns="http://www.w3.org/2000/svg"
   xmlns:xlink="http://www.w3.org/1999/xlink"
   xmlns:sodipodi="http://sodipodi.sourceforge.net/DTD/sodipodi-0.dtd"
   xmlns:inkscape="http://www.inkscape.org/namespaces/inkscape"
   version="1.0"
   width="2800.000000pt"
   height="2800.000000pt"
   viewBox="0 0 2800.000000 2800.000000"
   preserveAspectRatio="xMidYMid meet"
   id="svg2"
   inkscape:version="0.47 r22583"
   sodipodi:docname="MonoGame.svg">
  <defs
     id="defs54">
    <marker
       inkscape:stockid="TriangleInL"
       orient="auto"
       refY="0.0"
       refX="0.0"
       id="TriangleInL"
       style="overflow:visible">
      <path
         id="path4350"
         d="M 5.77,0.0 L -2.88,5.0 L -2.88,-5.0 L 5.77,0.0 z "
         style="fill-rule:evenodd;stroke:#000000;stroke-width:1.0pt;marker-start:none"
         transform="scale(-0.8)" />
    </marker>
    <marker
       inkscape:stockid="Arrow2Lstart"
       orient="auto"
       refY="0.0"
       refX="0.0"
       id="Arrow2Lstart"
       style="overflow:visible">
      <path
         id="path4234"
         style="font-size:12.0;fill-rule:evenodd;stroke-width:0.62500000;stroke-linejoin:round"
         d="M 8.7185878,4.0337352 L -2.2072895,0.016013256 L 8.7185884,-4.0017078 C 6.9730900,-1.6296469 6.9831476,1.6157441 8.7185878,4.0337352 z "
         transform="scale(1.1) translate(1,0)" />
    </marker>
    <marker
       inkscape:stockid="Arrow1Lstart"
       orient="auto"
       refY="0.0"
       refX="0.0"
       id="Arrow1Lstart"
       style="overflow:visible">
      <path
         id="path4216"
         d="M 0.0,0.0 L 5.0,-5.0 L -12.5,0.0 L 5.0,5.0 L 0.0,0.0 z "
         style="fill-rule:evenodd;stroke:#000000;stroke-width:1.0pt;marker-start:none"
         transform="scale(0.8) translate(12.5,0)" />
    </marker>
    <linearGradient
       id="linearGradient3913">
      <stop
         style="stop-color:#fbff0f;stop-opacity:1;"
         offset="0"
         id="stop3915" />
      <stop
         style="stop-color:#ffffff;stop-opacity:1;"
         offset="1"
         id="stop3917" />
    </linearGradient>
    <inkscape:perspective
       sodipodi:type="inkscape:persp3d"
       inkscape:vp_x="0 : 1750 : 1"
       inkscape:vp_y="0 : 1000 : 0"
       inkscape:vp_z="3500 : 1750 : 1"
       inkscape:persp3d-origin="1750 : 1166.6667 : 1"
       id="perspective56" />
    <inkscape:perspective
       id="perspective2837"
       inkscape:persp3d-origin="0.5 : 0.33333333 : 1"
       inkscape:vp_z="1 : 0.5 : 1"
       inkscape:vp_y="0 : 1000 : 0"
       inkscape:vp_x="0 : 0.5 : 1"
       sodipodi:type="inkscape:persp3d" />
    <radialGradient
       inkscape:collect="always"
       xlink:href="#linearGradient3605"
       id="radialGradient3611"
       cx="1089.6967"
       cy="1157.3376"
       fx="1089.6967"
       fy="1157.3376"
       r="691.32983"
       gradientTransform="matrix(1.8182987,5.0559827e-8,-2.014126e-8,0.72434639,-891.69732,319.02424)"
       gradientUnits="userSpaceOnUse" />
    <linearGradient
       id="linearGradient3605">
      <stop
         style="stop-color:#da6c00;stop-opacity:1;"
         offset="0"
         id="stop3607" />
      <stop
         style="stop-color:#c60200;stop-opacity:1;"
         offset="1"
         id="stop3609" />
    </linearGradient>
    <inkscape:perspective
       id="perspective2863"
       inkscape:persp3d-origin="0.5 : 0.33333333 : 1"
       inkscape:vp_z="1 : 0.5 : 1"
       inkscape:vp_y="0 : 1000 : 0"
       inkscape:vp_x="0 : 0.5 : 1"
       sodipodi:type="inkscape:persp3d" />
    <linearGradient
       id="linearGradient3605-7">
      <stop
         style="stop-color:#da6c00;stop-opacity:1;"
         offset="0"
         id="stop3607-4" />
      <stop
         style="stop-color:#c60200;stop-opacity:1;"
         offset="1"
         id="stop3609-0" />
    </linearGradient>
    <radialGradient
       inkscape:collect="always"
       xlink:href="#linearGradient3605-7"
       id="radialGradient5117"
       gradientUnits="userSpaceOnUse"
       gradientTransform="matrix(1.8182987,5.0559827e-8,-2.014126e-8,0.72434639,-891.69732,319.02424)"
       cx="1089.6967"
       cy="1157.3376"
       fx="1089.6967"
       fy="1157.3376"
       r="691.32983" />
    <radialGradient
       inkscape:collect="always"
       xlink:href="#linearGradient3913"
       id="radialGradient5119"
       gradientUnits="userSpaceOnUse"
       gradientTransform="matrix(1,0,0,0.70712702,1764.6532,631.70283)"
       cx="193.21997"
       cy="667.51266"
       fx="193.21997"
       fy="667.51266"
       r="333.94305" />
    <radialGradient
       inkscape:collect="always"
       xlink:href="#linearGradient3913"
       id="radialGradient5121"
       gradientUnits="userSpaceOnUse"
       gradientTransform="matrix(1,0,0,1.7462929,37.847834,-1125.3501)"
       cx="-511.53018"
       cy="1430.3245"
       fx="-511.53018"
       fy="1430.3245"
       r="101.77402" />
    <radialGradient
       inkscape:collect="always"
       xlink:href="#linearGradient3913"
       id="radialGradient5123"
       gradientUnits="userSpaceOnUse"
       gradientTransform="matrix(1,0,0,1.7462929,48.758243,-1109.4041)"
       cx="-511.53018"
       cy="1430.3245"
       fx="-511.53018"
       fy="1430.3245"
       r="101.77402" />
    <radialGradient
       inkscape:collect="always"
       xlink:href="#linearGradient3913"
       id="radialGradient5125"
       gradientUnits="userSpaceOnUse"
       gradientTransform="matrix(1,0,0,1.7462929,1.7595736,-1067.441)"
       cx="-511.53018"
       cy="1430.3245"
       fx="-511.53018"
       fy="1430.3245"
       r="101.77402" />
    <radialGradient
       inkscape:collect="always"
       xlink:href="#linearGradient3913"
       id="radialGradient5127"
       gradientUnits="userSpaceOnUse"
       gradientTransform="matrix(1,0,0,0.38198328,0,1125.4986)"
       cx="1821.111"
       cy="1261.796"
       fx="1821.111"
       fy="1261.796"
       r="529.33154" />
  </defs>
  <sodipodi:namedview
     pagecolor="#ffffff"
     bordercolor="#666666"
     borderopacity="1"
     objecttolerance="10"
     gridtolerance="10"
     guidetolerance="10"
     inkscape:pageopacity="0"
     inkscape:pageshadow="2"
     inkscape:window-width="1920"
     inkscape:window-height="1138"
     id="namedview52"
     showgrid="false"
     inkscape:zoom="0.28278442"
     inkscape:cx="1694.0022"
     inkscape:cy="1766.552"
     inkscape:window-x="-8"
     inkscape:window-y="-8"
     inkscape:window-maximized="1"
     inkscape:current-layer="svg2" />
  <metadata
     id="metadata4">
Created by potrace 1.10, written by Peter Selinger 2001-2011
<rdf:RDF>
  <cc:Work
     rdf:about="">
    <dc:format>image/svg+xml</dc:format>
    <dc:type
       rdf:resource="http://purl.org/dc/dcmitype/StillImage" />
    <dc:title />
  </cc:Work>
</rdf:RDF>
</metadata>
  <g
     id="g2908">
    <path
       d="m 715,126.6 c -72.7,6.3 -127.4,29.8 -171,73.4 -42.1,42 -66.8,91.5 -76.1,153 -2.2,14 -2.4,18.7 -2.4,49 0.1,38.1 1.3,49.3 8.5,77.5 4.9,19.5 9.3,31.2 19,51 19.7,40.4 49.8,75.2 85.5,99 33.1,22.1 69.2,34.9 115.5,41.2 19.2,2.6 71.1,2.6 88.5,0 50.9,-7.6 92.1,-24.8 127.1,-53.3 24.3,-19.7 46.5,-47.6 61.4,-77.4 21.3,-42.4 29.9,-82.8 32.5,-153.3 l 0.6,-15.7 -133.1,0 -133,0 0,51 0,51 55,0 c 30.3,0 55,0.3 55,0.7 -0.1,3.1 -4.4,19.3 -6.9,26.2 -16.4,44.9 -65.9,67.4 -126.1,57.4 -29.4,-4.8 -52.6,-18.4 -72.5,-42.3 -22.9,-27.5 -35.4,-59.3 -38.5,-98 -4.5,-55.8 18.9,-117.6 55.9,-147.2 41.1,-32.8 106.5,-34.1 147.8,-2.9 13.9,10.5 26,25.8 36.8,46.6 2.6,4.9 4.9,9.2 5.1,9.4 0.3,0.3 125.1,-50.7 126.3,-51.6 0.7,-0.5 -7.1,-15 -15.3,-28.6 -38.7,-64.6 -95,-102.1 -170.6,-113.8 -10.8,-1.7 -19.2,-2.1 -42,-2.4 -15.7,-0.1 -30.5,-0.1 -33,0.1 z"
       id="path8"
       style="fill:#000000;stroke:none" />
    <path
       d="m 1211.5,297.5 c -25.7,4.1 -46.8,12.3 -68,26.2 -27.2,17.9 -48.1,41.1 -62,68.8 -14.6,29.1 -20.3,58.1 -19.2,96.9 1.5,52.1 17.8,91.7 51.7,125.7 26.6,26.7 56.6,43.1 91.4,50.1 9.6,2 14.2,2.3 33.6,2.3 19.6,-0.1 23.8,-0.4 33,-2.3 29.6,-6.5 49.7,-17.6 67,-37.3 l 7,-7.9 0,18.5 0,18.5 62.5,0 62.5,0 0,-175 0,-175 -62.5,0 -62.5,0 0,16.5 0,16.6 -9.2,-8.2 c -11.3,-9.9 -18.5,-14.9 -29.8,-20.5 -10.7,-5.3 -23.2,-9.6 -36.5,-12.4 -13.2,-2.9 -45.4,-3.7 -59,-1.5 z m 79.9,108.5 c 23.5,6 44.1,24.1 53.1,46.7 9.3,23.1 6.5,52 -7,72.2 -5.6,8.5 -18.1,20.5 -26.5,25.4 -20.9,12.2 -50.4,13.7 -72.6,3.7 -13,-5.9 -26.1,-17.3 -34.1,-29.8 -17.6,-27.5 -16.2,-63.2 3.5,-89.3 16.5,-21.7 39.8,-32.7 66.8,-31.3 5.1,0.2 12.6,1.3 16.8,2.4 z"
       id="path10"
       style="fill:#000000;stroke:none" />
    <path
       d="m 2383,298.1 c -47.1,4.9 -84.3,21.3 -112.9,50 -34.7,34.6 -52.1,80.4 -52.1,136.7 0,42.4 9.2,75.2 29.9,106.3 28.4,42.6 71.2,68.2 128.6,77.1 16.8,2.5 52.4,3.5 70.2,1.9 57.9,-5.4 104.8,-30.7 130.5,-70.6 7.8,-12 16.9,-32 21.3,-46.3 l 0.6,-2.2 -60.5,0 -60.5,0 -2.9,4.2 c -4.1,5.9 -14.7,15.9 -20.6,19.3 -12.9,7.6 -28.7,10.5 -46.5,8.6 -40.7,-4.3 -59.8,-25.1 -63.7,-69.4 l -0.6,-7.7 130.2,0 130.3,0 -0.6,-20.8 c -1.1,-37.4 -6.6,-62.2 -19.9,-90.2 -27.2,-57.5 -75.9,-90.4 -143.2,-96.9 -12.7,-1.3 -45.3,-1.2 -57.6,0 z m 55.9,79.9 c 18.3,5.1 31.3,16.1 40,33.8 2.6,5.2 8.1,21 8.1,23.3 0,0.5 -26.4,0.9 -69.6,0.9 l -69.6,0 0.7,-4.2 c 2.3,-13.3 9.6,-27.8 18.5,-36.8 10.4,-10.3 23,-16.6 38,-18.9 9,-1.4 25.3,-0.4 33.9,1.9 z"
       id="path12"
       style="fill:#000000;stroke:none" />
    <path
       d="m 2007.7,302 c -38.1,6 -70.3,25.9 -91.2,56.4 l -5.3,7.7 -4.2,-6.1 c -6.7,-9.9 -18.3,-23.1 -25.4,-29 -18.6,-15.4 -42,-25 -68.6,-28.1 -14.4,-1.6 -41.7,-0.6 -53.8,2 -27.5,5.9 -49.7,17.6 -72.3,38 l -7.9,7.2 0,-21.5 0,-21.6 -62.5,0 -62.5,0 0,175 0,175 62.5,0 62.5,0 0,-93.8 c 0,-111.3 0.5,-119.4 8.1,-135.1 3.9,-7.8 14.4,-18.8 21.4,-22.4 27.2,-13.7 60.3,-4.3 72.4,20.6 7.3,14.8 8.1,28.4 8.1,140.4 l 0,90.3 61.9,0 62,0 0.4,-97.3 c 0.4,-102.7 0.5,-103 5.2,-119.4 7.5,-25.8 27.9,-41.7 53.5,-41.7 15.1,0 24.8,4.1 34.4,14.4 6.5,7 9.9,14 12.5,25.2 3.7,15.8 4.1,27.5 4.1,124.5 l 0,94.3 62.5,0 62.6,0 -0.4,-125.8 c -0.3,-94.3 -0.7,-127.8 -1.6,-134.2 -4.3,-28.7 -13.2,-47.4 -30.7,-64 -15.5,-14.7 -34.3,-24.4 -57.4,-29.5 -8.8,-1.9 -41.3,-2.9 -50.3,-1.5 z"
       id="path14"
       style="fill:#000000;stroke:none" />
    <path
       d="m 281,630.1 c -37.5,2 -71.6,14.9 -100.5,38.2 -10.4,8.4 -27.6,26.1 -34.8,35.8 -22.2,30.1 -34.9,65 -38.8,106.2 -1.6,17.9 -0.7,54.3 1.9,71.3 8.2,52.8 28.8,92.9 63.7,123.7 40.6,35.9 88.6,50.6 144,44.2 79.2,-9.3 141,-66 158.9,-145.8 4.4,-19.4 5.7,-31.2 6.3,-55.4 1,-42.6 -3.9,-73.6 -16.8,-104.8 -17.1,-41.4 -49,-75.8 -88.5,-95.4 -29.3,-14.4 -58.1,-19.9 -95.4,-18 z m 34.5,131.3 c 3.3,0.9 10.1,3.6 15,6.1 16.2,7.9 28,19.8 36,36 6.8,13.7 8,19.3 7.9,37.5 0,14.2 -0.2,16.2 -2.8,24 -5.2,15.8 -13.5,27.8 -26.6,38.3 -15.9,12.7 -30.8,18 -51,18 -20.2,0 -35.1,-5.3 -51,-18 -19.1,-15.3 -28.7,-34.3 -29.7,-58.9 -1.2,-26 5.6,-43.3 24.2,-61.9 12.7,-12.8 23,-18.5 39.5,-22 8.4,-1.8 30.2,-1.3 38.5,0.9 z"
       id="path16"
       style="fill:#000000;stroke:none" />
    <g
       transform="translate(-47.178358,26.973648)"
       id="g5090">
      <g
         transform="matrix(1.455154,0,0,1.4359728,-39.126334,5.0908847)"
         style="display:inline"
         id="g2848">
        <path
           sodipodi:nodetypes="cccccccccccc"
           id="path2831"
           d="m 791.42857,868.57143 c -34.28571,2.85714 -354.28571,97.14285 -354.28571,97.14285 -60.41062,296.44552 2.6168,630.23682 308.57143,837.14282 L 977.14285,1520 1594.2857,1777.1429 c 72.9753,-53.5765 94.4666,-136.0576 134.2857,-248.5715 26.6668,-157.1428 44.0826,-316.0539 -31.4286,-522.8571 33.81,-2.5394 54.7531,-13.65669 65.7143,-31.42859 C 1764.2229,863.87841 1745.8075,705.88855 1674.2857,600 1530.4762,514.28572 1035.4834,470.16565 957.14286,565.71428 L 800,545.71429 C 663.94529,652.01568 680.5125,797.43695 791.42857,868.57143 z"
           style="fill:url(#radialGradient5117);fill-opacity:1;stroke:#000000;stroke-width:36.20000076;stroke-linecap:butt;stroke-linejoin:miter;stroke-miterlimit:4;stroke-opacity:1;stroke-dasharray:none" />
        <path
           sodipodi:nodetypes="cccc"
           id="path3615"
           d="m 976.39836,571.79599 c 54.91534,8.55815 105.83124,23.97257 156.11314,40.47377 l -168.93403,-27.65289 12.82089,-12.82088 z"
           style="fill:#000000;fill-opacity:1;stroke:#000000;stroke-width:1px;stroke-linecap:butt;stroke-linejoin:miter;stroke-opacity:1" />
        <path
           id="path3617"
           d="m 818.42184,882.68735 c 0.30234,1.81401 153.88871,59.8624 153.88871,59.8624 l -133.02757,-63.49043 -20.86114,3.62803 z"
           style="fill:#000000;fill-opacity:1;stroke:#000000;stroke-width:1px;stroke-linecap:butt;stroke-linejoin:miter;stroke-opacity:1" />
        <path
           sodipodi:nodetypes="cccc"
           id="path3619"
           d="m 1735.1027,977.31832 c -83.9464,15.77676 -196.8204,-26.50473 -260.3108,-40.2106 74.4753,27.81486 147.0908,54.69982 223.4259,83.44458 l 36.8849,-43.23398 z"
           style="fill:#000000;fill-opacity:1;stroke:#000000;stroke-width:1px;stroke-linecap:butt;stroke-linejoin:miter;stroke-opacity:1" />
        <path
           sodipodi:nodetypes="cccc"
           id="path3621"
           d="m 1717.023,1508.2962 c -33.9386,4.5204 -225.0464,-161.0734 -294.4636,-248.7945 62.9264,113.126 151.2051,209.0765 285.6024,293.1003 l 8.8612,-44.3058 z"
           style="fill:#000000;fill-opacity:1;stroke:#000000;stroke-width:1px;stroke-linecap:butt;stroke-linejoin:miter;stroke-opacity:1" />
      </g>
      <path
         sodipodi:nodetypes="ccccccccccccccccccccccccccsccscscccc"
         d="m 1742.7781,1295.985 c 8.0737,0.4173 -36.748,-16.3175 -45.248,-22.8175 -17.8,-13.4 -31.5,-34.9 -36.8,-57.6 -1.6,-7.1 -2.1,-20.9 -1,-26.2 0.8,-3.3 0.8,-3.3 5.4,-2.7 18.4,2.5 53.9,11 91.7,21.9 10.4,3 19.1,5.4 19.2,5.2 0.2,-0.1 -12.2,-5.1 -27.5,-11.1 -36.3,-14.2 -68,-27.3 -81.7,-33.9 -8.5,-4.1 -12.1,-6.4 -15.7,-10.4 -10.3,-11.1 -17.2,-25.1 -21.1,-43.2 -1.7,-7.6 -2.1,-13 -2.1,-27 0.1,-27.4 1.2,-30.7 18.6,-56.9 62.8,-94.40001 142.9,-147.70001 238,-158.60001 16.2,-1.8 60.6,-1.3 76.6,1 77.4,10.9 147.5,41.5 211.4,92.29997 16.8,13.3 50.5,47.10004 62.2,62.20004 27.4,35.4 44.1,70.7 50.8,107 2.8,15.1 3.1,47.5 0.5,62 -6.2,35.7 -16.4,57 -37.2,77.5 -21,20.7 -44,30.6 -71.5,30.7 -16.6,0.1 -31.8,-3.3 -46.5,-10.3 l -5,-2.4 -1.1,-13 c -1.5,-16.8 -2.8,-23.7 -7,-36.6 -11.4,-35.2 -38.9,-67 -79.2,-91.3 -10.2,-6.1 -38.8,-20.6 -40.7,-20.6 -0.5,0 5.4,4.1 12.9,9 51.4,33.8 84.5,69.5 96.7,104.6 3.3,9.8 4.9,19 4.9,29.3 0,17.6 -4.8,29.9 -15.8,40.2 -12.9,12.2 -30.7,19 -56.2,21.4 -8.5,0.8 -29.6,-1 -42.2,-3.6 -23.9,-4.8 -56.3,-18.8 -80.5,-34.7 -6.7,-4.4 -12.3,-7.9 -12.5,-7.7 -31.4581,22.1898 -54.9721,18.1971 -70.9874,23.8"
         id="path3911"
         style="fill:url(#radialGradient5119);fill-opacity:1;stroke:#000000;stroke-width:8;stroke-miterlimit:4;stroke-opacity:1;stroke-dasharray:none;marker-start:none" />
      <g
         id="g5054"
         transform="translate(2111.193,450.51327)">
        <g
           transform="matrix(0.74006808,-0.33488703,0.38993494,0.86171868,-829.13029,-193.18511)"
           id="g5041">
          <g
             id="g4015"
             transform="matrix(1.7618114,0,0,1.395579,-313.91002,-594.14833)">
            <rect
               ry="15"
               rx="15"
               y="1191.8235"
               x="-579.99957"
               height="412.37878"
               width="212.63443"
               id="rect3983"
               style="fill:#000000;fill-opacity:1;stroke:#000000;stroke-width:7.698843;stroke-miterlimit:4;stroke-opacity:1;stroke-dasharray:none;stroke-dashoffset:0" />
            <rect
               style="fill:url(#radialGradient5121);fill-opacity:1;stroke:#000000;stroke-width:6.80922031;stroke-miterlimit:4;stroke-opacity:1;stroke-dasharray:none;stroke-dashoffset:0"
               id="rect3985"
               width="196.73882"
               height="348.64526"
               x="-572.05176"
               y="1198.0928"
               rx="13.878665"
               ry="12.681736" />
          </g>
          <rect
             style="fill:#ffffff;fill-opacity:1;stroke:#404040;stroke-width:7.83152246;stroke-miterlimit:4;stroke-opacity:1;stroke-dasharray:none;stroke-dashoffset:0"
             id="rect4013"
             width="48.845673"
             height="32.060436"
             x="-1173.3724"
             y="1563.6829"
             rx="12.531854"
             ry="11.63638" />
          <rect
             ry="11.63638"
             rx="12.531854"
             y="1608.1637"
             x="-1174.2117"
             height="32.060436"
             width="48.845673"
             id="rect4023"
             style="fill:#ffffff;fill-opacity:1;stroke:#404040;stroke-width:7.83152246;stroke-miterlimit:4;stroke-opacity:1;stroke-dasharray:none;stroke-dashoffset:0" />
          <rect
             ry="10"
             rx="10"
             y="1572.8975"
             x="-1298.4397"
             height="58.11198"
             width="92.521721"
             id="rect4025"
             style="fill:#404040;fill-opacity:1;stroke:#404040;stroke-width:14.51119423;stroke-miterlimit:4;stroke-opacity:1;stroke-dasharray:none;stroke-dashoffset:0" />
          <path
             style="fill:#ffffff;fill-opacity:1;stroke:none"
             d="m -1300.0931,1600.8914 38.7753,-23.942 0.2525,12.9742 56.2052,0.1338 -0.1263,20.3306 -55.8262,1.3376 0.1262,13.2417 -39.4067,-24.0759 z"
             id="path5039"
             sodipodi:nodetypes="cccccccc" />
        </g>
        <g
           transform="matrix(0.96758839,-0.2525326,0.2525326,0.96758839,-851.28847,-136.49875)"
           id="g3996">
          <g
             transform="matrix(1.1519826,-0.03814865,0.03655647,1.1563157,9.0542082,-206.91964)"
             id="g4002">
            <rect
               style="fill:#000000;fill-opacity:1;stroke:#000000;stroke-width:7.698843;stroke-miterlimit:4;stroke-opacity:1;stroke-dasharray:none;stroke-dashoffset:0"
               id="rect3971"
               width="212.63443"
               height="412.37878"
               x="-569.08917"
               y="1207.7694"
               rx="15"
               ry="15" />
            <rect
               ry="12.681736"
               rx="13.878665"
               y="1214.0387"
               x="-561.14136"
               height="348.64526"
               width="196.73882"
               id="rect3973"
               style="fill:url(#radialGradient5123);fill-opacity:1;stroke:#000000;stroke-width:6.80922031;stroke-miterlimit:4;stroke-opacity:1;stroke-dasharray:none;stroke-dashoffset:0" />
          </g>
        </g>
        <g
           transform="matrix(0.99987478,-0.01582475,0.01582475,0.99987478,-258.0968,-5.3668995)"
           id="g3964">
          <rect
             style="fill:#000000;fill-opacity:1;stroke:#000000;stroke-width:7.698843;stroke-miterlimit:4;stroke-opacity:1;stroke-dasharray:none;stroke-dashoffset:0"
             id="rect3923"
             width="212.63443"
             height="412.37878"
             x="-616.08783"
             y="1249.7325"
             rx="15"
             ry="15" />
          <rect
             ry="12.681736"
             rx="13.878665"
             y="1256.0018"
             x="-608.14001"
             height="348.64526"
             width="196.73882"
             id="rect3925"
             style="fill:url(#radialGradient5125);fill-opacity:1;stroke:#000000;stroke-width:6.80922031;stroke-miterlimit:4;stroke-opacity:1;stroke-dasharray:none;stroke-dashoffset:0" />
          <path
             sodipodi:type="arc"
             style="fill:#ffffff;fill-opacity:1;stroke:#404040;stroke-width:10;stroke-miterlimit:4;stroke-opacity:1;stroke-dasharray:none;stroke-dashoffset:0"
             id="path3962"
             sodipodi:cx="-639.93726"
             sodipodi:cy="2037.5859"
             sodipodi:rx="33.57048"
             sodipodi:ry="31.472324"
             d="m -606.36678,2037.5859 c 0,17.3817 -15.03001,31.4724 -33.57048,31.4724 -18.54046,0 -33.57048,-14.0907 -33.57048,-31.4724 0,-17.3816 15.03002,-31.4723 33.57048,-31.4723 18.54047,0 33.57048,14.0907 33.57048,31.4723 z"
             transform="matrix(0.72055957,0,0,0.80602215,-48.657702,-9.7528561)" />
        </g>
      </g>
      <path
         style="fill:url(#radialGradient5127);fill-opacity:1;stroke:#000000;stroke-width:10.39999962;stroke-linecap:round;stroke-linejoin:miter;stroke-miterlimit:4;stroke-opacity:1;stroke-dasharray:none"
         d="m 2294.3437,1641.5471 c 0,0 -598.2605,152.5457 -728.9631,205.6147 -93.8013,38.086 -274.5505,169.3799 -274.5505,169.3799 l -13.2847,-33.2117 c 0,0 182.4972,-124.6185 256.8376,-158.3094 116.7591,-52.9149 645.3784,-206.0713 645.3784,-206.0713"
         id="path5080"
         transform="scale(0.8,0.8)"
         sodipodi:nodetypes="csccsc" />
    </g>
    <g
       id="g3893">
      <g
         id="g3884">
        <path
           d="m 1141,1654.8 c -14,12.4 -25.6,22.8 -25.8,23.2 -0.2,0.6 66.9,14.9 67.7,14.4 0.5,-0.4 -14.9,-58.8 -15.7,-59.5 -0.4,-0.4 -12.2,9.5 -26.2,21.9 z"
           id="path30"
           style="fill:#000000;stroke:none" />
        <path
           d="m 1070.5,1672.5 c -2.2,0.8 -5.4,3 -7.2,4.9 -3.1,3.4 -3.2,3.4 -7.1,2 -8.1,-2.7 -21.3,1.6 -25.9,8.5 -2.8,4.1 -3.3,11.7 -0.7,10.7 0.9,-0.3 2.4,-0.6 3.4,-0.6 1.2,0 2,-1 2.4,-3.2 0.9,-4.5 3.2,-6.6 9.3,-8.4 4.9,-1.4 5.6,-1.4 7.9,0.1 2.8,1.8 4.9,5.7 4.2,7.7 -0.3,0.7 -4.3,2.9 -8.9,4.8 -13.6,5.7 -19.2,13.1 -15.9,21 2.2,5.4 6.4,8 12.8,8 7.1,0 12.9,-2.8 18,-8.6 l 3.9,-4.3 3.9,1.9 c 8.8,4.5 22.1,0.9 26.8,-7.3 1.4,-2.3 2.7,-5.8 3.1,-7.7 l 0.6,-3.6 -4,0.4 c -3.8,0.4 -4.2,0.7 -5.1,4.2 -0.6,2.2 -2.4,5 -4.2,6.5 -2.8,2.4 -3.9,2.7 -8.6,2.3 -5.9,-0.5 -8.2,-2.2 -10.6,-7.9 l -1.5,-3.5 15.1,-4 c 8.2,-2.1 15.4,-4.2 16,-4.5 1.4,-0.9 -0.5,-6.3 -4.1,-12.1 -4.9,-7.8 -14.2,-10.6 -23.6,-7.3 z m 15.1,8.9 c 1.9,1.9 3.4,4.1 3.4,4.8 0,1 -3.5,2.4 -11.2,4.5 -6.2,1.7 -11.7,2.8 -12.2,2.5 -1.5,-0.9 0.2,-8.4 2.6,-10.9 2.9,-3.2 5.3,-4.2 10.2,-4.2 3,-0.1 4.5,0.6 7.2,3.3 z m -25.2,24.6 c 1.2,7.8 -5,15.1 -13,15.3 -6,0.2 -10.2,-7 -6.3,-10.8 1.8,-1.8 17.2,-9.4 18,-8.9 0.4,0.2 0.9,2.2 1.3,4.4 z"
           id="path32"
           style="fill:#000000;stroke:none" />
        <path
           d="m 1363.3,1766.5 c -0.9,1.9 -1.5,3.7 -1.2,3.9 0.2,0.2 8,4.5 17.4,9.5 9.3,5.1 17.3,9.5 17.7,9.9 0.4,0.4 -1.5,5 -4.2,10.3 l -4.9,9.6 3.6,1.7 c 1.9,0.9 3.7,1.6 3.8,1.4 0.2,-0.2 3.2,-6.2 6.9,-13.5 l 6.5,-13.1 -21.4,-11.6 c -11.9,-6.4 -21.8,-11.6 -22,-11.6 -0.3,0 -1.3,1.6 -2.2,3.5 z"
           id="path36"
           style="fill:#000000;stroke:none" />
        <path
           d="m 1159,1833.5 c -15.1,4.1 -28.4,7.6 -29.6,7.9 -2.1,0.6 -2,1.1 4.2,24.3 3.5,13.1 6,24.1 5.6,24.4 -0.7,0.7 -24.2,6.9 -25.9,6.9 -0.5,0 -3.8,-10.7 -7.3,-23.9 l -6.3,-23.8 -3.9,1 c -2.1,0.5 -3.7,1.5 -3.5,2.1 0.2,0.6 6.4,24 13.8,51.9 l 13.4,50.8 3.5,-0.6 c 1.9,-0.4 3.7,-0.8 3.9,-1 0.2,-0.2 -2.5,-11 -5.9,-23.9 -3.5,-13 -6,-23.9 -5.7,-24.2 1,-1 26,-7.4 26.6,-6.8 0.3,0.3 3.3,11 6.7,23.7 4.4,16.7 6.5,23.2 7.5,23.1 0.8,-0.1 14.8,-3.6 31.2,-7.9 23.1,-6.1 29.7,-8.2 29.7,-9.4 0,-0.9 -6,-24.1 -13.3,-51.6 -11.6,-43.7 -13.5,-50 -15.2,-50.2 -1.1,-0.1 -14.4,3.1 -29.5,7.2 z"
           id="path38"
           style="fill:#000000;stroke:none" />
        <path
           d="m 1361.3,1848.5 c -15,11.6 -27.9,21.7 -28.8,22.6 -1.3,1.3 1.3,3 25.7,16.1 15,8.1 27.4,14.6 27.5,14.4 0.5,-0.5 3.4,-65.5 3.1,-69.8 l -0.3,-4.4 -27.2,21.1 z"
           id="path40"
           style="fill:#000000;stroke:none" />
        <path
           d="m 1316,1900.7 c -2.4,0.9 -6.1,4.6 -7.7,7.6 -0.8,1.6 -1.3,3 -1.1,3.1 5,3.7 5,3.7 8.3,-0.2 l 3.2,-3.6 9.5,4.7 c 11.1,5.6 15,6.5 20,4.4 l 3.6,-1.5 0.6,3.4 c 1,4.8 4.8,8.8 13,13.6 3.9,2.2 7.9,4.8 8.9,5.6 1.9,1.7 2.2,5.3 0.7,8.2 -0.9,1.6 -0.5,2.2 1.9,3.5 1.7,0.8 3.2,1.5 3.4,1.5 0.3,0 1.2,-1.8 2.1,-4 3.7,-9.3 1.2,-13.9 -11,-20.7 -10.9,-6 -13.8,-9.3 -13,-14.4 0.5,-3.4 0.3,-3.8 -2.4,-4.9 -2.7,-1.1 -3.3,-1 -5.4,0.9 -3.4,3.2 -7.6,2.6 -17.4,-2.3 -8.8,-4.4 -14.4,-6 -17.2,-4.9 z"
           id="path42"
           style="fill:#000000;stroke:none" />
        <path
           d="m 1289.3,1947.2 c -3.3,3.7 -5.3,8.4 -5.3,12.8 0,3.7 0.6,4.7 5.6,9.4 l 5.6,5.4 -2.1,4 c -1.9,3.8 -1.9,4 -0.2,5.6 2.5,2.3 3.7,2 5.1,-1.4 0.7,-1.7 1.6,-3.3 2.1,-3.6 0.9,-0.5 34.8,26.1 38.2,29.8 2.3,2.7 2.2,3.8 -0.8,8.2 -1.4,2 -2.5,3.9 -2.5,4.1 0,0.2 1.3,1.3 2.9,2.4 l 2.9,2.1 3.2,-5.1 c 1.7,-2.8 3.3,-6.4 3.7,-8 1.1,-5.7 -1.2,-8.4 -22,-25.2 -10.9,-8.8 -20.1,-16.6 -20.4,-17.4 -0.3,-0.7 0.5,-2.8 1.6,-4.7 l 2.1,-3.4 -2.7,-2.2 -2.7,-2.1 -1.9,3.8 c -1.1,2.1 -2.1,4 -2.3,4.2 -0.8,0.9 -7.4,-6.3 -7.4,-8 0,-0.9 1.1,-3.2 2.4,-5.2 l 2.4,-3.5 -2.2,-2.1 c -2.8,-2.6 -2.8,-2.6 -5.3,0.1 z"
           id="path44"
           style="fill:#000000;stroke:none" />
      </g>
      <path
         style="fill:#000000;stroke:none"
         id="path34"
         d="m 1371.7,1750.6 c -1,2 -1.6,3.8 -1.4,4 0.3,0.4 7.3,4.2 34.4,18.8 l 16.2,8.7 -9.1,17.5 c -4.9,9.6 -8.9,17.7 -8.7,17.8 0.2,0.2 1.8,1.1 3.5,1.9 l 3.2,1.6 9.2,-18.2 c 5.1,-10 10.1,-19.6 11.1,-21.3 l 1.8,-3 -28.6,-15.5 c -15.8,-8.5 -28.9,-15.5 -29.3,-15.7 -0.3,-0.1 -1.4,1.4 -2.3,3.4 z" />
    </g>
    <g
       id="g3904">
      <path
         style="fill:#000000;stroke:none"
         id="path20"
         d="m 1849.9,950.9 c -5,1.6 -7.6,3.5 -18.6,14.3 l -11.1,11 -7.6,-5.1 c -4.2,-2.9 -8.2,-5.4 -9,-5.7 -1.2,-0.4 -10.5,8.2 -11.3,10.4 -0.2,0.4 3.6,3.1 8.2,6 4.7,2.9 8.5,5.7 8.5,6.2 0,1.7 -81.8,89.6 -84.4,90.8 -6,2.7 -11.4,0.6 -20.4,-8.1 l -4.2,-4.1 -6.3,6.2 -6.2,6.3 4.9,4.6 c 7.3,6.6 16.7,13.1 21.6,14.8 11.1,3.9 18.4,0.8 32.7,-13.7 7.5,-7.7 78.4,-83.7 79.8,-85.6 0.2,-0.2 4,2.1 8.6,5.1 4.6,2.9 8.9,5.6 9.5,6 0.7,0.4 3.4,-1.9 6.3,-5.2 l 5.1,-5.9 -9,-5.8 -8.9,-5.7 1.9,-2.6 c 2.1,-3 9.2,-9.8 13.4,-12.9 5.4,-4.1 10.4,-2.4 19.8,6.6 l 5.7,5.4 6.1,-5.7 c 3.3,-3.2 6,-6.2 6,-6.6 0,-0.4 -3.2,-4 -7.2,-7.9 -11.8,-11.6 -23.6,-16.2 -33.9,-13.1 z" />
      <path
         style="fill:#000000;stroke:none"
         id="path22"
         d="m 2023.8,980.3 c -19.3,11.3 -27.6,16.6 -27.2,17.6 0.4,1.3 19.7,34.4 23.1,39.7 1.3,2 0.8,2.5 -10.8,9.4 -11.3,6.8 -12.3,7.2 -13.5,5.5 -0.7,-1 -6.4,-10.5 -12.6,-21.1 -6.2,-10.6 -11.6,-19.4 -12,-19.4 -0.4,0 -2.1,0.8 -3.7,1.8 l -2.9,1.7 26,44 c 14.2,24.2 26.6,45 27.4,46.2 1.3,2.1 1.5,2.2 4.4,0.5 1.6,-0.9 3,-2.1 3,-2.5 0,-0.4 -5.4,-10 -12.1,-21.2 -6.6,-11.2 -11.8,-20.8 -11.5,-21.3 0.6,-1.1 20.1,-12.8 22.6,-13.6 1.1,-0.4 4.8,5.1 13.5,20 6.6,11.3 12.3,20.8 12.7,21 0.6,0.4 47.4,-26.6 54,-31.1 1.6,-1 -0.9,-5.7 -25.3,-47.1 -14.9,-25.2 -27.2,-46 -27.3,-46.1 -0.1,-0.1 -12.6,7.1 -27.8,16 z" />
      <path
         style="fill:#000000;stroke:none"
         id="path24"
         d="m 1933.2,1149 c -8.9,13.7 -16.5,25.6 -16.8,26.4 -0.4,1.1 0,1.6 1.2,1.6 1.1,0 15.8,1.6 32.8,3.5 17,2 31.7,3.5 32.6,3.3 1.3,-0.2 -2.2,-6.9 -15.6,-29.7 -9.5,-16.1 -17.5,-29.5 -17.7,-29.7 -0.2,-0.2 -7.6,10.8 -16.5,24.6 z" />
      <path
         style="fill:#000000;stroke:none"
         id="path26"
         d="m 2120,1157 c -2.9,3.8 -5.6,7 -6.1,7 -0.5,0 -3.9,-2.3 -7.7,-5 -3.8,-2.8 -7.1,-5 -7.5,-5 -0.3,0 -1.5,1.3 -2.7,2.9 l -2,3 7.5,5.3 c 4.1,2.9 7.5,5.7 7.5,6.1 0,0.4 -2.5,4 -5.5,8 l -5.4,7.2 2.7,2.2 c 1.5,1.2 3,2.2 3.3,2.3 0.4,0 8.2,-10 11,-14.3 0.4,-0.5 4.1,1.6 8.3,4.8 l 7.7,5.6 1.9,-2.3 c 1.1,-1.3 1.9,-2.8 2,-3.5 0,-0.6 -3.1,-3.4 -7,-6.2 -3.8,-2.8 -7,-5.4 -7,-5.7 0,-0.4 2.3,-3.7 5,-7.5 2.8,-3.8 5,-7.3 5,-7.8 0,-0.8 -4.3,-4.1 -5.4,-4.1 -0.2,0 -2.7,3.1 -5.6,7 z" />
      <path
         style="fill:#000000;stroke:none"
         id="path28"
         d="m 1874.5,1190.7 c -1.1,0.2 -3,0.6 -4.2,0.9 -1.3,0.2 -3.8,1.8 -5.7,3.5 -3.4,2.9 -3.6,3 -6.5,1.5 -6.3,-3.3 -20.6,-1.3 -25.9,3.7 -2.9,2.7 -5.2,6.9 -5.2,9.7 0,1.7 0.6,2 4,2 3.5,0 4,-0.3 4,-2.3 0,-3.4 3.9,-6.6 9.1,-7.5 7.9,-1.4 10.8,0.2 12.4,6.9 0.6,2.5 0.4,2.7 -8.2,5.4 -12.8,4 -16.8,6.5 -18.9,12 -1.6,4.2 -1.6,4.8 0,8.8 4.2,11.1 19.7,11.6 30.7,1 l 3.6,-3.4 3.8,2.5 c 3.2,2.2 4.9,2.6 10.7,2.6 10.9,0 18.1,-5 20.6,-14.3 l 1,-3.7 -4.4,0 c -3.4,0 -4.4,0.4 -4.4,1.6 0,4.7 -6.6,10.4 -12,10.4 -4.4,0 -9.2,-3.2 -11.1,-7.4 -1,-2.3 -1.9,-4.6 -1.9,-5.2 0,-0.6 6.9,-2.1 16.3,-3.5 l 16.2,-2.4 -0.3,-3 c -1.5,-12.9 -12.6,-22.2 -23.7,-19.8 z m 9.1,8.2 c 3.7,2.2 6.4,7.8 4.5,9.1 -0.7,0.4 -5.4,1.3 -10.5,1.9 -5,0.7 -10,1.5 -11,1.8 -1.7,0.5 -1.8,0.1 -1.3,-3.7 1.2,-9.1 10.6,-13.8 18.3,-9.1 z m -25.1,23.1 c 1.3,7.9 -5.2,15 -13.7,15 -4.6,0 -7.8,-2.8 -7.8,-6.9 0,-1.6 0.7,-3.5 1.6,-4.2 1.3,-1.1 16.3,-7.4 18.6,-7.8 0.3,0 0.9,1.7 1.3,3.9 z" />
    </g>
    <path
       d="m 232.5,1122.1 c -23,1.2 -43,6.3 -59.7,15.1 -26.3,14 -47.2,40.5 -55.7,70.9 -4.3,15.6 -5.5,25.4 -5.4,46.4 0,29.3 3.6,47.4 13.2,67 6.3,12.9 12.8,21.4 26.3,34.7 l 10.9,10.8 -21.5,0 -21.6,0 0,62 0,62 175,0 175,0 0,-62 0,-62 -96.3,0 c -61.2,0 -99.3,-0.4 -104.7,-1.1 -20,-2.4 -30.2,-6.9 -41,-17.8 -12.6,-12.7 -18,-26.4 -18,-46 0,-17.2 4.6,-29.6 14.8,-39.8 8.8,-8.9 20,-13.1 40.4,-15.3 6,-0.6 46.7,-1 107.3,-1 l 97.5,0 0,-62.5 0,-62.5 -111.2,0.1 c -61.2,0.1 -117.6,0.5 -125.3,1 z"
       id="path46"
       style="fill:#000000;stroke:none" />
    <path
       d="m 281,1562.1 c -37.5,2 -71.6,14.9 -100.5,38.2 -10.4,8.4 -27.6,26.1 -34.8,35.8 -22.2,30.1 -34.9,65 -38.8,106.2 -1.6,17.9 -0.7,54.3 1.9,71.3 8.2,52.8 28.8,92.9 63.7,123.7 40.6,35.9 88.6,50.6 144,44.2 79.2,-9.3 141,-66 158.9,-145.8 4.4,-19.4 5.7,-31.2 6.3,-55.4 1,-42.6 -3.9,-73.6 -16.8,-104.8 -17.1,-41.4 -49,-75.8 -88.5,-95.4 -29.3,-14.4 -58.1,-19.9 -95.4,-18 z m 34.5,131.3 c 3.3,0.9 10.1,3.6 15,6.1 16.2,7.9 28,19.8 36,36 6.8,13.7 8,19.3 7.9,37.5 0,14.2 -0.2,16.2 -2.8,24 -5.2,15.8 -13.5,27.8 -26.6,38.3 -15.9,12.7 -30.8,18 -51,18 -20.2,0 -35.1,-5.3 -51,-18 -19.1,-15.3 -28.7,-34.3 -29.7,-58.9 -1.2,-26 5.6,-43.3 24.2,-61.9 12.7,-12.8 23,-18.5 39.5,-22 8.4,-1.8 30.2,-1.3 38.5,0.9 z"
       id="path48"
       style="fill:#000000;stroke:none" />
    <path
       d="m 217,2053.7 c -9.9,1 -25.1,3.7 -30.9,5.5 -35.1,10.8 -60.7,40.7 -70.3,81.8 -2.8,12.1 -3.5,39.1 -1.4,52.5 5.7,37.4 25.6,69.6 55.6,90.1 3.9,2.6 7,5.1 7,5.4 0,0.4 -2.4,2.3 -5.4,4.3 -24.6,16.3 -42.2,38.8 -51.2,65.1 -8.7,25.3 -9.6,61.7 -2.4,90.1 6,23.8 16.2,42 36,64.4 l 7.1,8.1 -21,0 -21.1,0 0,62 0,62 175,0 175,0 0,-62 0,-62 -90.7,0 c -111.9,0 -123,-0.7 -138.8,-8.5 -13.2,-6.5 -22.5,-17.2 -26.7,-30.9 -3.1,-9.9 -3.1,-25.4 0.1,-34.4 3.8,-11 9.8,-18.9 19,-25.1 7.3,-4.9 12.2,-6.7 23.4,-8.8 8.2,-1.5 20.6,-1.7 111.5,-2 l 102.2,-0.4 0,-61.9 0,-61.9 -97.7,-0.4 c -86.5,-0.3 -98.8,-0.6 -106.3,-2.1 -19.4,-3.8 -30.9,-9.4 -40.6,-19.7 -6.8,-7.3 -10,-13.1 -12.4,-22.4 -5.9,-23.1 2,-43.7 21.2,-55.3 7,-4.2 21.1,-7.7 36.5,-9.1 7.8,-0.7 45.5,-1.1 105.7,-1.1 l 93.6,0 0,-62 0,-62 -124.2,0.2 c -68.4,0 -125.9,0.3 -127.8,0.5 z"
       id="path50"
       style="fill:#000000;stroke:none" />
  </g>
</svg>
