<?xml version="1.0" encoding="utf-8"?>
<!-- Generator: Adobe Illustrator 14.0.0, SVG Export Plug-In . SVG Version: 6.00 Build 43363)  -->
<!DOCTYPE svg PUBLIC "-//W3C//DTD SVG 1.1//EN" "http://www.w3.org/Graphics/SVG/1.1/DTD/svg11.dtd">
<svg version="1.1"
	 id="svg2" sodipodi:docname="MonoGame.svg" inkscape:version="0.47 r22583" xmlns:inkscape="http://www.inkscape.org/namespaces/inkscape" xmlns:sodipodi="http://sodipodi.sourceforge.net/DTD/sodipodi-0.dtd" xmlns:svg="http://www.w3.org/2000/svg" xmlns:cc="http://creativecommons.org/ns#" xmlns:rdf="http://www.w3.org/1999/02/22-rdf-syntax-ns#" xmlns:dc="http://purl.org/dc/elements/1.1/"
	 xmlns="http://www.w3.org/2000/svg" xmlns:xlink="http://www.w3.org/1999/xlink" x="0px" y="0px" width="2800px" height="2800px"
	 viewBox="0 0 2800 2800" enable-background="new 0 0 2800 2800" xml:space="preserve">
<defs>
	
	
		<inkscape:perspective  id="perspective56" sodipodi:type="inkscape:persp3d" inkscape:vp_x="0 : 1750 : 1" inkscape:vp_y="0 : 1000 : 0" inkscape:vp_z="3500 : 1750 : 1" inkscape:persp3d-origin="1750 : 1166.6667 : 1">
		</inkscape:perspective>
	
		<inkscape:perspective  id="perspective2837" sodipodi:type="inkscape:persp3d" inkscape:vp_x="0 : 0.5 : 1" inkscape:vp_y="0 : 1000 : 0" inkscape:vp_z="1 : 0.5 : 1" inkscape:persp3d-origin="0.5 : 0.33333333 : 1">
		</inkscape:perspective>
	
		<inkscape:perspective  id="perspective2863" sodipodi:type="inkscape:persp3d" inkscape:vp_x="0 : 0.5 : 1" inkscape:vp_y="0 : 1000 : 0" inkscape:vp_z="1 : 0.5 : 1" inkscape:persp3d-origin="0.5 : 0.33333333 : 1">
		</inkscape:perspective>
</defs>
<sodipodi:namedview  id="namedview52" pagecolor="#ffffff" bordercolor="#666666" borderopacity="1" objecttolerance="10" gridtolerance="10" guidetolerance="10" showgrid="false" inkscape:zoom="0.28278442" inkscape:cx="1694.0022" inkscape:cy="1766.552" inkscape:pageopacity="0" inkscape:pageshadow="2" inkscape:window-width="1920" inkscape:window-height="1138" inkscape:window-x="-8" inkscape:window-y="-8" inkscape:current-layer="svg2" inkscape:window-maximized="1">
	</sodipodi:namedview>
<path id="path8" d="M715,126.6c-72.7,6.3-127.4,29.8-171,73.4c-42.1,42-66.8,91.5-76.1,153c-2.2,14-2.4,18.7-2.4,49
	c0.1,38.1,1.3,49.3,8.5,77.5c4.9,19.5,9.3,31.2,19,51c19.7,40.4,49.8,75.2,85.5,99c33.1,22.1,69.2,34.9,115.5,41.2
	c19.2,2.6,71.1,2.6,88.5,0c50.9-7.601,92.1-24.8,127.1-53.3C933.9,597.7,956.1,569.8,971,540c21.3-42.4,29.9-82.8,32.5-153.3
	l0.6-15.7H871H738v51v51h55c30.3,0,55,0.3,55,0.7c-0.1,3.1-4.4,19.3-6.9,26.2C824.7,544.8,775.2,567.3,715,557.3
	c-29.4-4.8-52.6-18.399-72.5-42.3c-22.9-27.5-35.4-59.3-38.5-98c-4.5-55.8,18.9-117.6,55.9-147.2c41.1-32.8,106.5-34.1,147.8-2.9
	c13.899,10.5,26,25.8,36.8,46.6c2.6,4.9,4.9,9.2,5.1,9.4c0.301,0.3,125.101-50.7,126.301-51.6c0.699-0.5-7.101-15-15.301-28.6
	c-38.699-64.6-95-102.1-170.6-113.8c-10.8-1.7-19.2-2.1-42-2.4C732.3,126.4,717.5,126.4,715,126.6L715,126.6z"/>
<path id="path10" d="M1211.5,297.5c-25.7,4.1-46.8,12.3-68,26.2c-27.2,17.9-48.1,41.1-62,68.8c-14.6,29.1-20.3,58.1-19.2,96.9
	c1.5,52.1,17.8,91.699,51.7,125.699c26.6,26.7,56.6,43.101,91.4,50.101c9.6,2,14.199,2.3,33.6,2.3c19.6-0.1,23.8-0.4,33-2.3
	c29.6-6.5,49.7-17.601,67-37.3l7-7.9v18.5V657h62.5h62.5V482V307h-62.5H1346v16.5v16.6l-9.2-8.2c-11.3-9.9-18.5-14.9-29.8-20.5
	c-10.7-5.3-23.2-9.6-36.5-12.4C1257.3,296.1,1225.1,295.3,1211.5,297.5L1211.5,297.5z M1291.4,406c23.5,6,44.1,24.1,53.1,46.7
	c9.3,23.1,6.5,52-7,72.2c-5.6,8.5-18.1,20.5-26.5,25.399c-20.9,12.2-50.4,13.7-72.6,3.7c-13-5.9-26.101-17.3-34.101-29.8
	c-17.6-27.5-16.2-63.2,3.5-89.3c16.5-21.7,39.8-32.7,66.8-31.301C1279.7,403.8,1287.2,404.9,1291.4,406L1291.4,406z"/>
<path id="path12" d="M2383,298.1c-47.1,4.9-84.3,21.3-112.9,50c-34.699,34.6-52.1,80.4-52.1,136.7c0,42.4,9.2,75.2,29.9,106.3
	c28.399,42.601,71.199,68.2,128.6,77.101c16.8,2.5,52.4,3.5,70.2,1.899c57.899-5.399,104.8-30.699,130.5-70.6
	c7.8-12,16.899-32,21.3-46.3l0.6-2.2h-60.5h-60.5l-2.899,4.2c-4.101,5.899-14.7,15.899-20.601,19.3
	c-12.899,7.6-28.699,10.5-46.5,8.6c-40.699-4.3-59.8-25.1-63.699-69.399l-0.601-7.7H2474h130.3l-0.6-20.8
	c-1.101-37.4-6.601-62.2-19.9-90.2c-27.2-57.5-75.899-90.4-143.2-96.9C2427.9,296.8,2395.3,296.9,2383,298.1L2383,298.1z
	 M2438.9,378c18.3,5.1,31.3,16.1,40,33.8c2.6,5.2,8.1,21,8.1,23.3c0,0.5-26.4,0.9-69.6,0.9H2347.8l0.7-4.2
	c2.3-13.3,9.6-27.8,18.5-36.8c10.399-10.3,23-16.6,38-18.9C2414,374.7,2430.3,375.7,2438.9,378L2438.9,378z"/>
<path id="path14" d="M2007.7,302c-38.101,6-70.3,25.9-91.2,56.4l-5.3,7.7l-4.2-6.1c-6.7-9.9-18.3-23.1-25.4-29
	c-18.6-15.4-42-25-68.6-28.1c-14.4-1.6-41.7-0.6-53.8,2c-27.5,5.9-49.7,17.6-72.3,38l-7.9,7.2v-21.5V307h-62.5H1554v175v175h62.5
	h62.5v-93.8c0-111.3,0.5-119.4,8.1-135.101c3.9-7.8,14.4-18.8,21.4-22.399c27.2-13.7,60.3-4.3,72.4,20.6
	c7.3,14.8,8.1,28.4,8.1,140.4V657h61.9h62l0.399-97.3c0.4-102.7,0.5-103,5.2-119.4c7.5-25.8,27.9-41.7,53.5-41.7
	c15.1,0,24.8,4.101,34.4,14.4c6.5,7,9.899,14,12.5,25.2c3.699,15.8,4.1,27.5,4.1,124.5V657h62.5h62.6l-0.399-125.8
	c-0.3-94.3-0.7-127.8-1.601-134.2c-4.3-28.7-13.199-47.4-30.699-64c-15.5-14.7-34.301-24.4-57.4-29.5
	C2049.2,301.6,2016.7,300.6,2007.7,302L2007.7,302z"/>
<path id="path16" d="M281,630.1c-37.5,2-71.6,14.9-100.5,38.2c-10.4,8.4-27.6,26.101-34.8,35.8c-22.2,30.101-34.9,65-38.8,106.2
	c-1.6,17.9-0.7,54.3,1.9,71.3c8.2,52.801,28.8,92.9,63.7,123.7c40.6,35.9,88.6,50.601,144,44.2c79.2-9.3,141-66,158.9-145.8
	c4.399-19.4,5.699-31.2,6.3-55.4c1-42.6-3.9-73.6-16.8-104.8c-17.101-41.4-49-75.8-88.5-95.4C347.1,633.7,318.3,628.2,281,630.1z
	 M315.5,761.4c3.3,0.899,10.1,3.6,15,6.1c16.2,7.9,28,19.8,36,36c6.8,13.7,8,19.3,7.9,37.5c0,14.2-0.2,16.2-2.801,24
	c-5.199,15.8-13.5,27.8-26.6,38.3c-15.9,12.7-30.8,18-51,18s-35.1-5.3-51-18C223.9,888,214.3,869,213.3,844.4
	c-1.2-26,5.6-43.301,24.2-61.9c12.7-12.8,23-18.5,39.5-22C285.4,758.7,307.2,759.2,315.5,761.4L315.5,761.4z"/>
<radialGradient id="path2831_1_" cx="1770.2422" cy="1604.252" r="691.3548" gradientTransform="matrix(2.6459 0 0 -1.0401 -3184.5107 3362.5537)" gradientUnits="userSpaceOnUse">
	<stop  offset="0" style="stop-color:#DA6C00"/>
	<stop  offset="1" style="stop-color:#C60200"/>
</radialGradient>
<path id="path2831" sodipodi:nodetypes="cccccccccccc" fill="url(#path2831_1_)" stroke="#000000" stroke-width="36.2" d="
	M1065.346,1279.31c-49.891,4.103-515.54,139.494-515.54,139.494c-87.907,425.688,3.808,905.003,449.019,1202.114l336.765-406.175
	l898.038,369.25c98.228-71.166,132.352-177.847,182.779-321.325c4.088-11.63-10.207-19.636-5.862-31.75
	c1.555-9.041,21.577-21.952,23.081-31.005c36.025-216.91,55.152-438.604-50.326-723.67c49.199-3.646,79.675-19.611,95.625-45.131
	c1.987-158.542-24.81-385.411-128.885-537.464c-209.266-123.084-929.556-186.438-1043.554-49.233l-228.667-28.72
	C879.838,968.342,903.945,1177.162,1065.346,1279.31z"/>
<path id="path3615" sodipodi:nodetypes="cccc" stroke="#000000" d="M1331.505,844.148c79.911,12.289,154.001,34.424,227.169,58.119
	l-245.825-39.709L1331.505,844.148L1331.505,844.148z"/>
<path id="path3617" stroke="#000000" d="M1086.625,1295.58c0.44,2.604,223.932,85.96,223.932,85.96l-193.575-91.17L1086.625,1295.58
	L1086.625,1295.58z"/>
<path id="path3619" sodipodi:nodetypes="cccc" stroke="#000000" d="M2441.537,1441.467
	c-122.155,22.655-286.404-38.06-378.793-57.741c108.373,39.941,214.04,78.548,325.119,119.824L2441.537,1441.467L2441.537,1441.467z
	"/>
<path id="path3621" sodipodi:nodetypes="cccc" stroke="#000000" d="M2417.229,2197.937
	c-49.387,6.491-327.478-231.297-428.49-357.262c91.567,162.446,220.026,300.229,415.596,420.884L2417.229,2197.937
	L2417.229,2197.937z"/>
<radialGradient id="path3911_1_" cx="193.2197" cy="2548.6738" r="329.1214" gradientTransform="matrix(1 0 0 -0.7071 1717.4746 2932.8604)" gradientUnits="userSpaceOnUse">
	<stop  offset="0" style="stop-color:#FFC001"/>
	<stop  offset="1" style="stop-color:#FFE28C"/>
</radialGradient>
<path id="path3911" sodipodi:nodetypes="ccccccccccccccccccccccccccsccscscccc" fill="url(#path3911_1_)" stroke="#000000" stroke-width="8" d="
	M1695.6,1322.959c8.074,0.417-36.748-16.318-45.248-22.818c-17.8-13.399-31.5-34.899-36.8-57.6c-1.601-7.1-2.101-20.9-1-26.2
	c0.8-3.3,0.8-3.3,5.399-2.699c18.4,2.5,53.9,11,91.7,21.899c10.4,3,19.101,5.4,19.2,5.2c0.2-0.1-12.2-5.1-27.5-11.1
	c-36.3-14.2-68-27.301-81.7-33.9c-8.5-4.1-12.1-6.4-15.7-10.4c-10.3-11.1-17.199-25.1-21.1-43.199c-1.7-7.601-2.1-13-2.1-27
	c0.1-27.4,1.199-30.7,18.6-56.9c62.8-94.4,142.9-147.7,238-158.6c16.2-1.801,60.6-1.301,76.6,1c77.4,10.899,147.5,41.5,211.4,92.3
	c16.8,13.3,50.5,47.1,62.2,62.2c27.399,35.399,44.1,70.699,50.8,107c2.8,15.1,3.1,47.5,0.5,62c-6.2,35.699-16.4,57-37.2,77.5
	c-21,20.699-44,30.6-71.5,30.699c-16.6,0.101-31.8-3.3-46.5-10.3l-5-2.4l-1.1-13c-1.5-16.8-2.8-23.699-7-36.6
	c-11.4-35.2-38.9-67-79.2-91.3c-10.2-6.101-38.8-20.601-40.7-20.601c-0.5,0,5.4,4.101,12.9,9c51.4,33.801,84.5,69.5,96.7,104.601
	c3.3,9.8,4.899,19,4.899,29.3c0,17.6-4.8,29.9-15.8,40.2c-12.899,12.2-30.7,19-56.2,21.399c-8.5,0.801-29.6-1-42.199-3.6
	c-23.9-4.8-56.301-18.8-80.5-34.7c-6.7-4.399-12.301-7.899-12.5-7.699c-31.458,22.189-54.973,18.196-70.987,23.8"/>
<path id="rect3983" stroke="#000000" stroke-width="7.6988" d="M682.782,1644.074l238.13-107.756
	c10.802-4.888,23.213-0.773,27.721,9.189l208.085,459.847c4.508,9.963-0.594,22.002-11.396,26.89L907.192,2140
	c-10.802,4.888-23.212,0.773-27.721-9.189l-208.085-459.848C666.879,1661.001,671.98,1648.962,682.782,1644.074z"/>
<radialGradient id="rect3985_1_" cx="175.0244" cy="958.1938" r="101.7735" gradientTransform="matrix(1.3039 -0.59 -0.9503 -2.1001 1582.4805 3922.9436)" gradientUnits="userSpaceOnUse">
	<stop  offset="0" style="stop-color:#FFC001"/>
	<stop  offset="1" style="stop-color:#FFE28C"/>
</radialGradient>
<path id="rect3985" fill="url(#rect3985_1_)" stroke="#000000" stroke-width="6.8092" d="M695.095,1647.586l220.328-99.7
	c9.994-4.522,21.186-1.36,24.997,7.063l175.925,388.777c3.812,8.423-1.2,18.917-11.194,23.439l-220.328,99.7
	c-9.994,4.522-21.186,1.36-24.997-7.063L683.9,1671.025C680.089,1662.603,685.101,1652.108,695.095,1647.586z"/>
<radialGradient id="rect4013_1_" cx="1000.5684" cy="2030.3379" r="19.7718" gradientUnits="userSpaceOnUse">
	<stop  offset="0" style="stop-color:#FFC001"/>
	<stop  offset="1" style="stop-color:#FFE28C"/>
</radialGradient>
<path id="rect4013" fill="url(#rect4013_1_)" stroke="#404040" stroke-width="7.8315" d="M985.518,2020.507l17.601-7.964
	c5.122-2.318,11.306,0.292,13.812,5.83l3.427,7.572c2.506,5.538,0.385,11.906-4.737,14.225l-17.6,7.964
	c-5.122,2.318-11.307-0.292-13.813-5.83l-3.426-7.573C978.274,2029.193,980.396,2022.824,985.518,2020.507z"/>
<radialGradient id="rect4023_1_" cx="1017.292" cy="2068.9492" r="19.7718" gradientUnits="userSpaceOnUse">
	<stop  offset="0" style="stop-color:#FFC001"/>
	<stop  offset="1" style="stop-color:#FFE28C"/>
</radialGradient>
<path id="rect4023" fill="url(#rect4023_1_)" stroke="#404040" stroke-width="7.8315" d="M1002.241,2059.118l17.601-7.965
	c5.122-2.317,11.306,0.293,13.812,5.831l3.427,7.572c2.506,5.538,0.385,11.906-4.737,14.225l-17.6,7.964
	c-5.122,2.317-11.307-0.293-13.813-5.831l-3.427-7.572C994.998,2067.804,997.119,2061.436,1002.241,2059.118z"/>
<path id="rect4025" fill="#231F20" stroke="#404040" stroke-width="14.5112" d="M894.679,2071.179l53.671-24.286
	c4.088-1.85,9.146,0.509,11.301,5.268l14.86,32.842c2.154,4.76,0.586,10.117-3.501,11.966l-53.671,24.287
	c-4.087,1.85-9.146-0.509-11.3-5.269l-14.861-32.842C889.024,2078.386,890.592,2073.028,894.679,2071.179z"/>
<radialGradient id="path5039_1_" cx="934.0146" cy="2082.3652" r="31.3613" gradientUnits="userSpaceOnUse">
	<stop  offset="0" style="stop-color:#FFC001"/>
	<stop  offset="1" style="stop-color:#FFE28C"/>
</radialGradient>
<path id="path5039" sodipodi:nodetypes="cccccccc" fill="url(#path5039_1_)" d="M896.971,2099.204l19.36-33.616l5.246,11.096
	l41.647-18.708l7.834,17.562l-40.793,19.849l5.256,11.368L896.971,2099.204L896.971,2099.204z"/>
<path id="rect3971" stroke="#000000" stroke-width="7.6988" d="M952.356,1660.281l201.813-59.872
	c9.154-2.716,18.773,2.534,21.485,11.727l125.183,424.29c2.713,9.192-2.51,18.846-11.664,21.562l-201.813,59.872
	c-9.154,2.716-18.774-2.535-21.486-11.727l-125.183-424.29C937.98,1672.65,943.202,1662.997,952.356,1660.281z"/>
<radialGradient id="rect3973_1_" cx="-81.2871" cy="996.1895" r="101.7743" gradientTransform="matrix(1.105 -0.3278 -0.5717 -1.9377 1771.729 3734.4023)" gradientUnits="userSpaceOnUse">
	<stop  offset="0" style="stop-color:#FFC001"/>
	<stop  offset="1" style="stop-color:#FFE28C"/>
</radialGradient>
<path id="rect3973" fill="url(#rect3973_1_)" stroke="#000000" stroke-width="6.8092" d="M961.952,1665l186.727-55.396
	c8.47-2.513,17.195,1.75,19.488,9.521l105.835,358.716c2.293,7.771-2.714,16.108-11.184,18.621l-186.727,55.396
	c-8.47,2.513-17.195-1.75-19.488-9.521l-105.835-358.716C948.476,1675.85,953.482,1667.513,961.952,1665z"/>
<path id="rect3923" stroke="#000000" stroke-width="7.6988" d="M1224.682,1731.208l182.612-2.89
	c8.283-0.132,15.104,6.478,15.235,14.761l6.051,382.33c0.131,8.284-6.478,15.104-14.761,15.236l-182.611,2.89
	c-8.283,0.131-15.104-6.478-15.235-14.761l-6.052-382.331C1209.79,1738.16,1216.398,1731.339,1224.682,1731.208z"/>
<radialGradient id="rect3925_1_" cx="-495.9326" cy="950.4292" r="101.7735" gradientTransform="matrix(0.9999 -0.0158 -0.0276 -1.7461 1840.9602 3562.041)" gradientUnits="userSpaceOnUse">
	<stop  offset="0" style="stop-color:#FFC001"/>
	<stop  offset="1" style="stop-color:#FFE28C"/>
</radialGradient>
<path id="rect3925" fill="url(#rect3925_1_)" stroke="#000000" stroke-width="6.8092" d="M1231.606,1737.368l168.961-2.674
	c7.664-0.121,13.967,5.458,14.077,12.461l5.116,323.241c0.11,7.003-6.013,12.778-13.677,12.899l-168.96,2.675
	c-7.664,0.121-13.967-5.458-14.077-12.461l-5.116-323.241C1217.819,1743.266,1223.942,1737.49,1231.606,1737.368z"/>
<radialGradient id="path3962_1_" cx="1322.0459" cy="2112.5693" r="24.7856" gradientUnits="userSpaceOnUse">
	<stop  offset="0" style="stop-color:#FFC001"/>
	<stop  offset="1" style="stop-color:#FFE28C"/>
</radialGradient>
<path id="path3962" sodipodi:cx="-639.93726" sodipodi:cy="2037.5859" sodipodi:rx="33.57048" sodipodi:ry="31.472324" sodipodi:type="arc" fill="url(#path3962_1_)" stroke="#404040" stroke-width="10" d="
	M1346.232,2112.187c0.223,14.008-10.427,25.535-23.785,25.747c-13.357,0.211-24.365-10.974-24.588-24.981
	c-0.221-14.009,10.428-25.536,23.785-25.747C1335.003,2086.993,1346.012,2098.178,1346.232,2112.187z"/>
<radialGradient id="path5080_1_" cx="1547.6113" cy="3819.2227" r="529.3316" gradientTransform="matrix(0.8 0 0 -0.3056 171.6215 2480.1162)" gradientUnits="userSpaceOnUse">
	<stop  offset="0" style="stop-color:#FFC001"/>
	<stop  offset="1" style="stop-color:#FFE28C"/>
</radialGradient>
<path id="path5080" sodipodi:nodetypes="csccsc" fill="url(#path5080_1_)" stroke="#000000" stroke-width="10.4" stroke-linecap="round" d="
	M1788.297,1340.211c0,0-478.608,122.037-583.171,164.492c-75.041,30.469-219.641,135.504-219.641,135.504l-10.627-26.569
	c0,0,145.997-99.694,205.47-126.647c93.407-42.332,516.303-164.857,516.303-164.857"/>
<path id="path30" d="M1141,1654.8c-14,12.4-25.6,22.8-25.8,23.2c-0.2,0.6,66.899,14.9,67.7,14.4c0.5-0.4-14.9-58.801-15.7-59.5
	C1166.8,1632.5,1155,1642.4,1141,1654.8z"/>
<path id="path32" d="M1070.5,1672.5c-2.2,0.8-5.4,3-7.2,4.9c-3.1,3.399-3.2,3.399-7.1,2c-8.101-2.7-21.3,1.6-25.9,8.5
	c-2.8,4.1-3.3,11.699-0.7,10.699c0.9-0.3,2.4-0.6,3.4-0.6c1.2,0,2-1,2.4-3.2c0.899-4.5,3.199-6.6,9.3-8.399c4.9-1.4,5.6-1.4,7.9,0.1
	c2.8,1.8,4.899,5.7,4.199,7.7c-0.3,0.7-4.3,2.899-8.899,4.8c-13.601,5.7-19.2,13.1-15.9,21c2.2,5.4,6.4,8,12.8,8
	c7.101,0,12.9-2.8,18-8.6l3.9-4.301l3.9,1.9c8.8,4.5,22.1,0.9,26.8-7.3c1.4-2.3,2.7-5.8,3.1-7.7l0.601-3.6l-4,0.399
	c-3.801,0.4-4.2,0.7-5.101,4.2c-0.6,2.2-2.399,5-4.199,6.5c-2.801,2.4-3.9,2.7-8.601,2.3c-5.899-0.5-8.2-2.2-10.6-7.899l-1.5-3.5
	l15.1-4c8.2-2.101,15.4-4.2,16-4.5c1.4-0.9-0.5-6.301-4.1-12.101C1089.2,1672,1079.9,1669.2,1070.5,1672.5L1070.5,1672.5z
	 M1085.6,1681.4c1.9,1.899,3.4,4.1,3.4,4.8c0,1-3.5,2.399-11.2,4.5c-6.2,1.7-11.7,2.8-12.2,2.5c-1.5-0.9,0.2-8.4,2.601-10.9
	c2.899-3.2,5.3-4.2,10.2-4.2C1081.4,1678,1082.9,1678.7,1085.6,1681.4L1085.6,1681.4z M1060.4,1706c1.199,7.8-5,15.1-13,15.3
	c-6,0.2-10.2-7-6.301-10.8c1.801-1.8,17.2-9.4,18-8.9C1059.5,1701.8,1060,1703.8,1060.4,1706z"/>
<path id="path38" d="M1159,1833.5c-15.1,4.1-28.4,7.6-29.6,7.9c-2.101,0.6-2,1.1,4.199,24.3c3.5,13.1,6,24.1,5.601,24.399
	c-0.7,0.7-24.2,6.9-25.9,6.9c-0.5,0-3.8-10.7-7.3-23.9l-6.3-23.8l-3.9,1c-2.1,0.5-3.7,1.5-3.5,2.101c0.2,0.6,6.4,24,13.8,51.899
	l13.4,50.8l3.5-0.6c1.9-0.4,3.7-0.8,3.9-1c0.199-0.2-2.5-11-5.9-23.9c-3.5-13-6-23.899-5.7-24.199c1-1,26-7.4,26.601-6.801
	c0.3,0.301,3.3,11,6.699,23.7c4.4,16.7,6.5,23.2,7.5,23.101c0.801-0.101,14.801-3.601,31.2-7.9c23.1-6.1,29.7-8.2,29.7-9.4
	c0-0.899-6-24.1-13.301-51.6c-11.6-43.7-13.5-50-15.199-50.2C1187.399,1826.2,1174.1,1829.4,1159,1833.5L1159,1833.5z"/>
<g>
	<path id="path36" d="M1332.3,1778.5c-0.899,1.9-1.5,3.7-1.2,3.9c0.2,0.199,8,4.5,17.4,9.5c9.3,5.1,17.3,9.5,17.7,9.899
		c0.399,0.4-1.5,5-4.2,10.3l-4.9,9.601l3.601,1.7c1.899,0.899,3.7,1.6,3.8,1.399c0.2-0.2,3.2-6.2,6.9-13.5l6.5-13.1l-21.4-11.601
		c-11.9-6.399-21.8-11.6-22-11.6C1334.2,1775,1333.2,1776.6,1332.3,1778.5L1332.3,1778.5z"/>
	<path id="path40" d="M1330.3,1860.5c-15,11.6-27.899,21.7-28.8,22.6c-1.3,1.301,1.3,3,25.7,16.101c15,8.1,27.399,14.6,27.5,14.399
		c0.5-0.5,3.399-65.5,3.1-69.8l-0.3-4.399L1330.3,1860.5L1330.3,1860.5z"/>
	<path id="path42" d="M1285,1912.7c-2.4,0.899-6.1,4.6-7.7,7.6c-0.8,1.601-1.3,3-1.1,3.101c5,3.699,5,3.699,8.3-0.2l3.2-3.601
		l9.5,4.7c11.1,5.601,15,6.5,20,4.4l3.6-1.5l0.601,3.399c1,4.801,4.8,8.801,13,13.601c3.899,2.2,7.899,4.8,8.899,5.6
		c1.9,1.7,2.2,5.3,0.7,8.2c-0.9,1.6-0.5,2.2,1.9,3.5c1.699,0.8,3.199,1.5,3.399,1.5c0.3,0,1.2-1.8,2.101-4
		c3.699-9.3,1.199-13.9-11-20.7c-10.9-6-13.801-9.3-13-14.399c0.5-3.4,0.3-3.801-2.4-4.9s-3.3-1-5.4,0.9
		c-3.399,3.199-7.6,2.6-17.399-2.301C1293.4,1913.2,1287.8,1911.6,1285,1912.7L1285,1912.7z"/>
	<path id="path44" d="M1258.3,1959.2c-3.3,3.7-5.3,8.399-5.3,12.8c0,3.7,0.6,4.7,5.6,9.4l5.601,5.399l-2.101,4
		c-1.899,3.8-1.899,4-0.199,5.601c2.5,2.3,3.699,2,5.1-1.4c0.7-1.7,1.6-3.3,2.1-3.6c0.9-0.5,34.801,26.1,38.2,29.8
		c2.3,2.7,2.2,3.8-0.8,8.2c-1.4,2-2.5,3.899-2.5,4.1s1.3,1.3,2.9,2.4l2.899,2.1l3.2-5.1c1.7-2.801,3.3-6.4,3.7-8
		c1.1-5.7-1.2-8.4-22-25.2c-10.9-8.8-20.101-16.601-20.4-17.4c-0.3-0.7,0.5-2.8,1.6-4.7l2.101-3.399l-2.7-2.2l-2.7-2.1l-1.899,3.8
		c-1.101,2.1-2.101,4-2.301,4.2c-0.8,0.899-7.399-6.301-7.399-8c0-0.9,1.1-3.2,2.399-5.2l2.4-3.5l-2.2-2.1
		C1260.8,1956.5,1260.8,1956.5,1258.3,1959.2L1258.3,1959.2z"/>
	<path id="path34" d="M1340.7,1762.6c-1,2-1.601,3.801-1.4,4c0.3,0.4,7.3,4.2,34.4,18.801l16.2,8.699l-9.101,17.5
		c-4.899,9.601-8.899,17.7-8.7,17.801c0.2,0.199,1.801,1.1,3.5,1.899l3.2,1.601l9.2-18.2c5.1-10,10.1-19.601,11.1-21.3l1.801-3
		l-28.601-15.5c-15.8-8.5-28.899-15.5-29.3-15.7C1342.7,1759.1,1341.6,1760.6,1340.7,1762.6L1340.7,1762.6z"/>
</g>
<g id="g3904">
	<path id="path20" d="M1849.9,950.9c-5,1.6-7.601,3.5-18.601,14.3l-11.1,11l-7.601-5.101c-4.199-2.899-8.199-5.399-9-5.699
		c-1.199-0.4-10.5,8.199-11.3,10.399c-0.2,0.4,3.601,3.101,8.2,6c4.7,2.9,8.5,5.7,8.5,6.2c0,1.7-81.8,89.6-84.4,90.8
		c-6,2.7-11.399,0.601-20.399-8.1l-4.2-4.101l-6.3,6.2l-6.2,6.3l4.9,4.601c7.3,6.6,16.699,13.1,21.6,14.8
		c11.1,3.9,18.4,0.8,32.7-13.7c7.5-7.699,78.399-83.699,79.8-85.6c0.2-0.2,4,2.1,8.6,5.1c4.601,2.9,8.9,5.601,9.5,6
		c0.7,0.4,3.4-1.899,6.301-5.199l5.1-5.9l-9-5.8l-8.9-5.7l1.9-2.6c2.1-3,9.2-9.801,13.4-12.9c5.399-4.1,10.399-2.4,19.8,6.6l5.7,5.4
		l6.1-5.7c3.3-3.2,6-6.2,6-6.6c0-0.4-3.2-4-7.2-7.9C1872,952.4,1860.2,947.8,1849.9,950.9L1849.9,950.9z"/>
	<path id="path22" d="M2023.8,980.3c-19.3,11.3-27.6,16.601-27.2,17.601c0.4,1.3,19.7,34.399,23.101,39.699c1.3,2,0.8,2.5-10.8,9.4
		c-11.301,6.8-12.301,7.2-13.5,5.5c-0.7-1-6.4-10.5-12.601-21.1c-6.2-10.601-11.6-19.4-12-19.4c-0.399,0-2.1,0.8-3.7,1.8l-2.899,1.7
		l26,44c14.2,24.2,26.6,45,27.399,46.2c1.301,2.1,1.5,2.2,4.4,0.5c1.6-0.9,3-2.101,3-2.5c0-0.4-5.4-10-12.1-21.2
		c-6.601-11.2-11.801-20.8-11.5-21.3c0.6-1.101,20.1-12.8,22.6-13.601c1.1-0.399,4.8,5.101,13.5,20c6.6,11.301,12.3,20.801,12.7,21
		c0.601,0.4,47.399-26.6,54-31.1c1.601-1-0.899-5.7-25.3-47.1c-14.9-25.2-27.2-46-27.301-46.101
		C2051.5,964.2,2039,971.4,2023.8,980.3L2023.8,980.3z"/>
	<path id="path24" d="M1933.2,1149c-8.9,13.7-16.5,25.6-16.8,26.4c-0.4,1.1,0,1.6,1.199,1.6c1.101,0,15.801,1.6,32.801,3.5
		c17,2,31.699,3.5,32.6,3.3c1.3-0.2-2.2-6.899-15.6-29.7c-9.5-16.1-17.5-29.5-17.7-29.699C1949.5,1124.2,1942.1,1135.2,1933.2,1149
		L1933.2,1149z"/>
	<path id="path26" d="M2120,1157c-2.9,3.8-5.6,7-6.1,7s-3.9-2.3-7.7-5c-3.8-2.8-7.101-5-7.5-5c-0.3,0-1.5,1.3-2.7,2.9l-2,3l7.5,5.3
		c4.1,2.899,7.5,5.7,7.5,6.1c0,0.4-2.5,4-5.5,8l-5.4,7.2l2.7,2.2c1.5,1.2,3,2.2,3.3,2.3c0.4,0,8.2-10,11-14.3
		c0.4-0.5,4.101,1.6,8.301,4.8l7.699,5.6l1.9-2.3c1.1-1.3,1.9-2.8,2-3.5c0-0.6-3.1-3.399-7-6.2c-3.8-2.8-7-5.399-7-5.699
		c0-0.4,2.3-3.7,5-7.5c2.8-3.801,5-7.301,5-7.801c0-0.8-4.3-4.1-5.4-4.1C2125.4,1150,2122.9,1153.1,2120,1157z"/>
	<path id="path28" d="M1874.5,1190.7c-1.1,0.2-3,0.6-4.2,0.899c-1.3,0.2-3.8,1.801-5.7,3.5c-3.399,2.9-3.6,3-6.5,1.5
		c-6.3-3.3-20.6-1.3-25.899,3.7c-2.9,2.7-5.2,6.9-5.2,9.7c0,1.7,0.6,2,4,2c3.5,0,4-0.3,4-2.3c0-3.4,3.9-6.601,9.1-7.5
		c7.9-1.4,10.801,0.199,12.4,6.899c0.6,2.5,0.4,2.7-8.2,5.4c-12.8,4-16.8,6.5-18.899,12c-1.601,4.2-1.601,4.8,0,8.8
		c4.199,11.101,19.699,11.601,30.699,1l3.601-3.399l3.8,2.5c3.2,2.199,4.9,2.6,10.7,2.6c10.899,0,18.1-5,20.6-14.3l1-3.7h-4.399
		c-3.4,0-4.4,0.4-4.4,1.6c0,4.7-6.6,10.4-12,10.4c-4.4,0-9.2-3.2-11.1-7.4c-1-2.3-1.9-4.6-1.9-5.199c0-0.601,6.9-2.101,16.3-3.5
		l16.2-2.4l-0.3-3C1896.7,1197.6,1885.6,1188.3,1874.5,1190.7L1874.5,1190.7z M1883.6,1198.9c3.7,2.199,6.4,7.8,4.5,9.1
		c-0.699,0.4-5.399,1.3-10.5,1.9c-5,0.699-10,1.5-11,1.8c-1.699,0.5-1.8,0.1-1.3-3.7C1866.5,1198.9,1875.9,1194.2,1883.6,1198.9
		L1883.6,1198.9z M1858.5,1222c1.3,7.9-5.2,15-13.7,15c-4.6,0-7.8-2.8-7.8-6.9c0-1.6,0.7-3.5,1.6-4.199
		c1.301-1.101,16.301-7.4,18.601-7.801C1857.5,1218.1,1858.1,1219.8,1858.5,1222z"/>
</g>
<path id="path46" d="M232.5,1122.1c-23,1.2-43,6.301-59.7,15.101c-26.3,14-47.2,40.5-55.7,70.899c-4.3,15.601-5.5,25.4-5.4,46.4
	c0,29.3,3.6,47.4,13.2,67c6.3,12.9,12.8,21.4,26.3,34.7l10.9,10.8h-21.5H119v62v62h175h175v-62v-62h-96.3
	c-61.2,0-99.3-0.4-104.7-1.1c-20-2.4-30.2-6.9-41-17.801c-12.6-12.699-18-26.399-18-46c0-17.199,4.6-29.6,14.8-39.8
	c8.8-8.899,20-13.1,40.4-15.3c6-0.6,46.7-1,107.3-1H469v-62.5V1121l-111.2,0.1C296.6,1121.2,240.2,1121.6,232.5,1122.1L232.5,1122.1
	z"/>
<path id="path48" d="M281,1562.1c-37.5,2-71.6,14.9-100.5,38.2c-10.4,8.4-27.6,26.101-34.8,35.8c-22.2,30.101-34.9,65-38.8,106.2
	c-1.6,17.9-0.7,54.3,1.9,71.3c8.2,52.801,28.8,92.9,63.7,123.7c40.6,35.9,88.6,50.601,144,44.2c79.2-9.3,141-66,158.9-145.8
	c4.399-19.4,5.699-31.2,6.3-55.4c1-42.6-3.9-73.6-16.8-104.8c-17.101-41.4-49-75.801-88.5-95.4
	C347.1,1565.699,318.3,1560.199,281,1562.1L281,1562.1z M315.5,1693.4c3.3,0.899,10.1,3.6,15,6.1c16.2,7.9,28,19.8,36,36
	c6.8,13.7,8,19.3,7.9,37.5c0,14.2-0.2,16.2-2.801,24c-5.199,15.8-13.5,27.8-26.6,38.3c-15.9,12.7-30.8,18-51,18s-35.1-5.3-51-18
	c-19.1-15.3-28.7-34.3-29.7-58.899c-1.2-26,5.6-43.301,24.2-61.9c12.7-12.8,23-18.5,39.5-22C285.4,1690.7,307.2,1691.2,315.5,1693.4
	z"/>
<path id="path50" d="M217,2053.7c-9.9,1-25.1,3.7-30.9,5.5c-35.1,10.8-60.7,40.7-70.3,81.8c-2.8,12.1-3.5,39.1-1.4,52.5
	c5.7,37.4,25.6,69.6,55.6,90.1c3.9,2.601,7,5.101,7,5.4c0,0.4-2.4,2.3-5.4,4.3c-24.6,16.3-42.2,38.8-51.2,65.101
	c-8.7,25.3-9.6,61.699-2.4,90.1c6,23.801,16.2,42,36,64.4l7.1,8.1h-21H119v62v62h175h175v-62v-62h-90.7
	c-111.9,0-123-0.699-138.8-8.5c-13.2-6.5-22.5-17.199-26.7-30.899c-3.1-9.9-3.1-25.4,0.1-34.4c3.8-11,9.8-18.899,19-25.1
	c7.3-4.9,12.2-6.7,23.4-8.8c8.2-1.5,20.6-1.7,111.5-2l102.2-0.4V2349v-61.899l-97.7-0.399c-86.5-0.301-98.8-0.601-106.3-2.101
	c-19.4-3.8-30.9-9.399-40.6-19.7c-6.8-7.3-10-13.1-12.4-22.399c-5.9-23.101,2-43.7,21.2-55.3c7-4.2,21.1-7.7,36.5-9.101
	c7.8-0.7,45.5-1.101,105.7-1.101H469v-62v-62l-124.2,0.2C276.4,2053.2,218.9,2053.5,217,2053.7L217,2053.7z"/>
</svg>
